<?xml version="1.0" standalone="no"?>
<!DOCTYPE svg PUBLIC "-//W3C//DTD SVG 20010904//EN" "http://www.w3.org/TR/2001/REC-SVG-20010904/DTD/svg10.dtd">
<svg version="1.0" xmlns="http://www.w3.org/2000/svg" width="464.000000pt" height="473.000000pt"
    viewBox="0 0 464.000000 473.000000" preserveAspectRatio="xMidYMid meet">

    <g transform="translate(0.000000,473.000000) scale(0.100000,-0.100000)" fill="#000000" stroke="none">
        <path d="M2267 4631 c-19 -43 -42 -57 -63 -40 -30 25 -106 39 -147 28 -31 -8
-42 -8 -48 3 -7 10 -22 6 -69 -20 -44 -24 -77 -34 -127 -39 -38 -3 -101 -17
-142 -31 -61 -21 -77 -23 -93 -13 -17 10 -23 9 -43 -13 -13 -14 -39 -27 -61
-31 -65 -11 -98 -24 -154 -60 -30 -19 -63 -35 -73 -35 -11 0 -32 -11 -49 -25
-16 -14 -38 -25 -47 -25 -10 0 -39 -11 -64 -25 -26 -13 -53 -22 -61 -19 -9 3
-15 -5 -19 -23 -12 -55 -43 -91 -89 -103 -24 -7 -58 -21 -77 -32 -18 -12 -47
-24 -65 -27 -26 -6 -33 -13 -41 -45 -5 -22 -26 -56 -47 -78 -21 -22 -38 -44
-38 -50 0 -6 -27 -38 -61 -71 -33 -33 -69 -78 -81 -101 -11 -22 -34 -53 -51
-68 -25 -24 -29 -34 -24 -63 5 -33 3 -37 -33 -55 -47 -24 -73 -66 -110 -174
-16 -47 -45 -117 -64 -158 -20 -40 -36 -81 -36 -92 0 -10 -14 -47 -31 -83 -19
-39 -29 -73 -25 -86 3 -14 -4 -39 -19 -64 -13 -23 -31 -68 -40 -99 -16 -55
-39 -279 -30 -293 2 -4 -5 -15 -16 -24 -20 -18 -28 -87 -9 -87 5 0 14 -9 20
-19 11 -22 33 -244 32 -331 0 -30 4 -60 10 -67 5 -7 7 -16 4 -22 -9 -14 32
-246 55 -307 11 -30 31 -67 44 -82 18 -21 21 -32 13 -46 -7 -13 -5 -28 7 -57
10 -21 22 -39 27 -39 4 0 8 -7 8 -15 0 -19 30 -85 49 -108 8 -10 15 -38 16
-62 0 -31 7 -51 23 -68 12 -13 22 -26 22 -30 0 -4 26 -42 58 -85 31 -42 69
-96 84 -119 15 -24 32 -43 37 -43 5 0 76 -68 158 -151 164 -167 306 -292 358
-313 18 -8 58 -32 87 -53 29 -21 64 -44 78 -50 14 -6 70 -32 124 -58 104 -48
178 -80 259 -109 27 -10 69 -36 95 -59 57 -49 98 -67 153 -67 l42 0 -23 -25
c-22 -24 -22 -25 -4 -25 11 0 38 9 59 21 37 19 55 20 235 18 260 -3 513 13
564 36 22 9 78 21 125 26 48 5 130 15 184 22 l98 12 54 59 c46 49 57 57 69 46
13 -10 27 -4 83 33 37 25 84 52 103 60 19 8 58 34 85 56 28 22 73 58 100 79
28 22 68 57 90 78 37 36 77 63 177 119 41 23 108 80 108 93 0 4 13 26 29 48
16 22 32 51 36 65 4 15 29 57 56 95 27 38 58 87 70 109 12 22 40 65 64 95 80
104 135 202 135 241 0 24 7 42 21 55 33 29 69 114 69 162 0 24 6 56 14 70 23
45 46 157 46 224 0 102 18 229 41 288 28 74 55 157 64 200 7 34 7 35 -12 18
-28 -25 -43 -22 -43 8 0 51 -23 115 -46 131 l-24 15 40 45 c22 25 40 49 40 53
0 4 -12 25 -27 46 -33 49 -46 94 -48 165 -1 40 -9 69 -28 104 -15 27 -30 59
-33 71 -12 49 -45 54 -93 14 -20 -17 -21 -22 -10 -36 7 -9 18 -26 24 -38 7
-11 17 -20 24 -18 9 2 11 -6 6 -26 -4 -22 -2 -31 10 -36 22 -8 3 -41 -38 -66
l-32 -20 37 0 c35 0 37 -2 44 -37 4 -21 10 -43 15 -49 5 -6 5 -34 0 -62 -10
-61 -4 -102 15 -109 37 -14 -10 -65 -77 -83 -38 -11 -49 -23 -29 -35 6 -3 7
-17 4 -30 -4 -16 1 -30 14 -43 19 -19 22 -27 43 -120 10 -46 9 -58 -7 -95 -10
-23 -26 -54 -35 -68 -10 -14 -21 -38 -25 -55 l-7 -29 32 29 c29 28 31 29 31 8
0 -12 -11 -45 -24 -74 -13 -29 -34 -80 -47 -113 -12 -33 -37 -91 -55 -130 -60
-131 -114 -281 -114 -318 0 -13 -5 -28 -11 -34 -9 -9 -2 -9 24 -4 19 5 41 12
48 16 7 5 -1 -16 -18 -46 -19 -34 -31 -69 -31 -91 0 -74 -27 -79 -36 -7 -5 38
-12 52 -26 56 -21 6 -70 74 -70 99 0 9 11 24 23 34 18 15 23 26 19 49 -6 40
-23 39 -55 -3 -19 -25 -37 -35 -69 -41 l-43 -8 48 -10 c26 -6 47 -14 47 -18 0
-4 -32 -17 -72 -29 -85 -26 -127 -62 -152 -135 -10 -27 -22 -60 -27 -72 -4
-12 -28 -36 -51 -52 -24 -17 -52 -39 -63 -50 -11 -11 -37 -27 -57 -36 -21 -8
-38 -21 -38 -29 0 -19 -37 -50 -45 -37 -3 6 -4 15 -1 19 3 5 -29 10 -72 11
-76 1 -95 4 -277 36 -83 15 -127 31 -195 69 -14 8 -39 20 -56 26 -38 14 -91
81 -105 135 -6 22 -17 50 -25 62 -12 19 -15 90 -17 383 -2 336 -3 360 -20 373
-16 11 -17 18 -9 53 6 21 13 73 17 114 13 168 10 161 78 202 34 20 80 41 102
47 38 11 248 26 470 35 67 3 119 11 159 25 33 12 73 21 90 21 17 0 49 7 73 16
47 18 57 40 52 118 -2 24 2 50 8 58 7 8 8 19 4 27 -5 8 0 21 14 35 63 63 91
232 48 291 -15 22 -21 45 -21 80 1 49 1 50 -77 121 -44 40 -89 74 -100 76 -11
3 -48 -2 -81 -10 -60 -14 -63 -14 -130 13 -119 47 -125 52 -112 79 9 21 22 26
82 36 79 13 115 21 196 44 30 9 67 16 83 16 35 0 154 33 194 53 16 9 35 23 42
31 8 10 29 16 52 16 33 0 41 -4 49 -24 5 -14 23 -35 39 -47 17 -12 33 -36 37
-53 10 -46 52 -127 84 -161 16 -16 33 -48 39 -70 7 -22 26 -76 44 -120 30 -76
34 -81 75 -95 60 -21 76 -8 80 61 3 65 -20 99 -68 99 -33 0 -35 3 -19 49 9 25
8 35 -3 49 -21 26 -38 70 -38 100 0 19 -12 40 -40 67 -22 21 -40 45 -40 51 0
7 -11 26 -25 42 -14 17 -31 44 -38 60 -7 17 -34 49 -60 72 -26 23 -47 47 -47
54 0 6 -9 19 -20 29 -11 9 -20 24 -20 32 0 8 -7 15 -16 15 -41 0 -154 93 -154
126 0 12 -9 29 -20 39 -11 10 -20 26 -20 36 0 11 -22 32 -57 55 -32 20 -74 50
-94 65 -23 18 -49 29 -68 29 -20 0 -34 7 -41 20 -6 11 -25 27 -43 36 -18 9
-45 27 -60 40 -16 13 -39 24 -52 24 -14 0 -40 14 -58 30 -24 21 -45 30 -69 30
-20 0 -56 3 -82 6 -36 5 -46 11 -46 25 0 15 -8 19 -36 19 -26 0 -46 9 -71 31
-32 28 -40 30 -82 24 -85 -12 -86 -11 -89 13 -6 40 -73 53 -144 28 -32 -12
-38 -11 -52 6 -22 25 -120 26 -135 1 -9 -16 -10 -14 -11 8 0 33 -18 39 -123
39 -74 0 -78 1 -72 20 12 37 -21 21 -38 -19z m239 -96 c-3 -9 0 -17 7 -19 6
-2 28 -8 47 -15 33 -11 314 -75 390 -88 19 -4 40 -12 47 -19 7 -7 52 -25 100
-40 58 -18 102 -39 128 -61 25 -21 66 -41 110 -54 38 -12 81 -24 95 -28 34
-10 36 -40 7 -104 -21 -46 -35 -61 -110 -110 -53 -36 -96 -57 -114 -57 -15 0
-82 -9 -148 -20 -149 -24 -192 -25 -241 -2 -35 15 -39 20 -36 50 2 23 -2 34
-14 39 -27 10 -68 -10 -74 -37 -3 -14 -9 -20 -12 -15 -4 6 5 45 19 87 14 41
23 83 20 92 -4 9 -20 24 -37 34 -16 9 -30 22 -30 28 0 40 -75 69 -136 52 -24
-6 -46 -6 -66 1 -24 9 -36 8 -52 -3 -32 -20 -76 -109 -83 -164 -5 -47 -4 -51
28 -78 87 -75 92 -82 85 -122 -12 -61 -13 -75 -15 -119 -1 -42 -41 -106 -57
-91 -4 4 -10 38 -15 75 -8 78 -44 236 -60 265 -16 30 -89 57 -172 64 l-76 7
-75 -77 c-120 -121 -129 -138 -136 -264 -6 -123 -13 -140 -95 -230 -58 -63
-99 -92 -132 -92 -15 0 -18 9 -18 62 0 42 -4 63 -13 66 -21 7 -82 63 -82 75 0
6 -7 19 -16 29 -16 16 -15 18 2 24 72 25 132 63 219 141 113 101 129 122 146
187 14 57 1 94 -45 129 -63 48 -119 70 -192 75 -62 4 -77 1 -128 -24 -32 -15
-77 -45 -101 -66 -34 -30 -51 -38 -82 -38 -56 0 -102 -16 -123 -43 -28 -36
-72 -50 -125 -43 -25 4 -45 11 -45 17 0 5 -10 9 -22 9 -21 1 -18 5 19 39 24
21 78 56 122 78 43 22 103 58 132 80 30 22 69 48 87 57 66 34 197 86 217 86
23 0 355 80 490 118 76 21 112 25 230 26 128 1 143 3 170 23 36 26 70 31 61 8z
m67 -343 c10 -10 14 -21 11 -25 -10 -10 -44 12 -44 28 0 20 13 19 33 -3z
m1255 -330 c5 -15 -23 -26 -45 -18 -14 6 -14 8 3 21 21 16 36 15 42 -3z
m-1452 -210 c11 -7 26 -90 23 -127 0 -11 -1 -29 0 -40 0 -11 3 -63 5 -115 2
-52 4 -100 5 -107 2 -20 31 -43 54 -43 18 0 25 -10 39 -58 11 -36 28 -68 48
-87 34 -33 11 -31 275 -23 44 2 200 0 346 -3 l266 -6 52 -28 c33 -19 51 -34
49 -44 -4 -22 -199 -35 -278 -19 -49 9 -188 12 -320 5 -25 -1 -62 1 -83 5 -20
4 -35 3 -32 -1 5 -8 -74 -21 -133 -21 -18 0 -56 -8 -86 -19 -44 -15 -63 -17
-109 -9 -50 9 -60 8 -91 -11 -85 -53 -146 -162 -146 -261 0 -32 4 -61 9 -64 9
-6 8 -64 -3 -112 -6 -28 -4 -32 18 -38 19 -5 28 -16 36 -47 6 -22 20 -49 31
-60 10 -10 19 -25 19 -32 0 -7 9 -29 20 -50 13 -23 19 -53 18 -80 -1 -23 7
-69 17 -102 29 -94 31 -177 6 -226 -17 -33 -19 -41 -7 -45 12 -5 14 -26 11
-114 -3 -60 -11 -126 -19 -147 -8 -21 -17 -50 -20 -65 -3 -14 -23 -48 -44 -75
-57 -71 -64 -88 -69 -173 -5 -69 -3 -83 18 -121 13 -24 31 -50 40 -56 10 -7
29 -34 44 -60 15 -27 37 -58 47 -70 11 -12 23 -37 27 -55 4 -18 9 -31 12 -28
7 6 27 -15 60 -62 14 -21 42 -55 62 -77 20 -22 37 -44 37 -50 0 -5 -38 -21
-85 -36 -155 -50 -100 -56 65 -7 121 35 129 36 148 19 9 -8 36 -24 58 -35 23
-12 44 -28 47 -36 3 -8 21 -16 39 -18 29 -3 33 -6 33 -32 -1 -31 -15 -31 130
-6 117 20 225 7 225 -26 0 -18 -65 -49 -139 -67 -41 -9 -88 -26 -105 -36 -51
-31 -333 -109 -441 -121 -55 -6 -136 -16 -180 -22 -74 -9 -215 -5 -292 9 -28
4 -33 9 -33 33 0 15 7 33 15 40 8 7 15 18 15 25 0 7 11 33 25 56 29 51 30 59
10 59 -7 0 -31 -21 -52 -46 -21 -25 -48 -50 -60 -55 -15 -5 -21 -14 -17 -24 5
-11 2 -14 -10 -9 -10 4 -16 1 -17 -7 -1 -8 -2 -21 -3 -29 0 -9 -9 -14 -21 -12
-11 2 -38 5 -60 7 -82 5 -130 18 -149 37 -14 15 -28 19 -55 15 -40 -4 -163 26
-200 50 -16 10 -26 12 -34 4 -7 -7 -14 -7 -24 0 -7 7 -13 9 -13 5 0 -7 -56 22
-101 52 -83 54 -123 74 -160 79 -37 5 -43 10 -59 48 -21 49 -53 75 -91 75 -21
0 -40 14 -77 55 -33 37 -61 59 -85 66 -43 12 -90 67 -85 100 2 14 26 39 63 66
100 71 119 83 137 83 25 0 85 -99 103 -172 9 -35 25 -77 36 -94 30 -49 175
-183 206 -190 15 -3 48 -13 73 -22 28 -11 75 -17 127 -17 67 0 86 4 110 21 15
11 66 47 113 79 47 32 104 75 128 97 31 28 48 37 62 33 15 -5 20 -2 20 13 0
11 7 25 15 32 8 6 17 21 21 32 3 11 24 45 45 76 29 41 39 65 39 94 0 22 7 53
16 70 9 18 27 89 40 159 13 69 32 149 43 176 12 32 16 54 10 60 -6 6 -2 46 12
109 26 121 26 125 6 304 -18 156 -31 230 -46 258 -5 9 -17 67 -26 127 -9 61
-23 124 -29 140 -29 70 -56 166 -71 250 -14 80 -22 99 -71 171 -48 70 -56 89
-61 141 -5 52 -2 69 21 119 51 111 138 245 176 269 44 28 132 121 152 161 9
16 21 47 28 69 30 95 52 120 86 97z m-1848 -132 c15 0 42 -9 60 -20 41 -25 42
-54 4 -112 -51 -77 -56 -100 -33 -144 12 -21 21 -53 21 -71 0 -44 9 -63 31
-63 10 0 24 -12 31 -27 7 -15 24 -30 38 -33 41 -11 15 -59 -46 -85 -20 -8 -54
-43 -90 -91 -33 -42 -74 -93 -92 -113 -32 -34 -34 -39 -30 -98 3 -47 9 -68 26
-86 12 -12 41 -50 64 -84 55 -78 90 -107 126 -100 220 38 404 120 566 252 118
97 119 98 224 102 121 6 169 -7 232 -64 43 -38 52 -55 80 -138 17 -52 34 -116
37 -142 2 -26 10 -54 16 -62 8 -9 12 -53 11 -119 -1 -97 -2 -107 -23 -124 -30
-23 -58 -23 -100 3 -26 16 -43 19 -75 14 -77 -12 -92 -23 -130 -95 -21 -39
-49 -76 -65 -87 -29 -18 -205 -172 -303 -265 -28 -26 -56 -44 -63 -41 -8 2
-40 -7 -70 -22 -103 -48 -267 -97 -306 -91 -25 4 -48 -1 -80 -17 -38 -19 -50
-33 -89 -109 -41 -81 -47 -88 -75 -88 -34 0 -39 3 -79 47 -17 19 -32 50 -37
78 -5 25 -15 61 -23 78 -7 18 -19 62 -25 99 -6 37 -20 88 -31 113 -23 53 -59
210 -70 305 -4 36 -17 86 -30 111 l-23 46 24 32 c23 32 24 39 25 219 1 168 4
203 32 342 20 94 49 200 76 270 24 63 47 130 51 149 4 18 18 49 31 68 13 20
24 47 24 60 0 33 44 115 70 131 20 12 22 19 17 70 l-6 56 25 -27 c15 -17 35
-27 52 -27z m2737 -15 c0 -30 -64 -44 -109 -22 -33 15 -62 13 -126 -11 -38
-14 -245 -30 -264 -20 -17 9 -13 13 33 35 49 24 56 24 119 13 66 -11 90 -9
232 19 25 5 61 9 80 8 28 -2 35 -6 35 -22z m-2165 -24 c5 -11 10 -38 10 -60 0
-30 5 -43 20 -51 11 -6 20 -21 20 -34 0 -12 3 -25 6 -29 15 -15 14 -124 -2
-159 -21 -48 -54 -53 -54 -9 0 32 -15 47 -42 43 -14 -3 -18 4 -20 30 -3 69 -6
84 -22 120 -9 21 -16 55 -16 76 0 34 5 43 38 65 45 32 49 32 62 8z m760 -1623
c0 -96 -4 -159 -10 -163 -6 -4 -7 -12 -3 -18 4 -7 9 -55 10 -107 2 -95 2 -95
-37 -155 -22 -33 -74 -102 -117 -153 l-78 -92 -151 -4 -151 -4 7 44 c8 51 62
137 135 214 78 81 108 119 148 181 20 31 47 63 61 72 13 9 41 50 62 91 35 71
36 79 32 151 l-5 76 35 29 c55 45 61 28 62 -162z m2490 -161 c0 -8 -9 -22 -20
-32 -17 -16 -20 -16 -20 -2 0 26 11 47 26 47 8 0 14 -6 14 -13z m-68 -139 c-7
-7 -12 -8 -12 -2 0 14 12 26 19 19 2 -3 -1 -11 -7 -17z m-922 -1078 c0 -5 -7
-10 -15 -10 -8 0 -15 5 -15 10 0 6 7 10 15 10 8 0 15 -4 15 -10z" />
        <path d="M1488 2656 c-8 -7 -34 -23 -58 -35 -81 -39 -121 -68 -142 -102 -34
-58 -100 -119 -128 -119 -31 0 -71 -22 -144 -77 -30 -24 -62 -43 -69 -43 -8 0
-34 -7 -58 -16 -24 -8 -88 -20 -141 -24 -54 -5 -107 -14 -119 -20 -38 -21
-100 -83 -119 -120 -23 -45 -60 -187 -60 -229 0 -36 46 -94 87 -109 98 -35
106 -36 209 -9 55 14 133 40 174 57 41 17 98 38 125 46 28 9 67 29 87 45 21
16 56 37 78 47 30 13 51 34 82 82 39 58 47 65 80 68 20 2 42 10 48 18 7 8 22
14 33 14 19 0 19 1 4 18 -23 25 -21 32 6 32 13 0 26 9 32 22 6 13 24 29 40 37
64 29 152 143 134 172 -12 20 -11 80 3 119 11 32 10 35 -28 68 -38 34 -107 71
-131 72 -6 0 -18 -6 -25 -14z" />
        <path d="M3145 2471 c-135 -7 -193 -28 -241 -84 -96 -114 -59 -224 96 -287 26
-10 102 -15 306 -17 l271 -4 51 55 c91 100 96 174 17 270 -62 77 -129 85 -500
67z" />
        <path d="M3335 2039 c-22 -5 -107 -18 -189 -29 -228 -31 -259 -53 -273 -187
-5 -47 -3 -57 18 -79 48 -52 150 -96 263 -114 33 -5 67 -16 75 -25 13 -13 8
-14 -45 -13 -32 1 -99 -4 -149 -10 -84 -11 -92 -14 -122 -47 -31 -33 -33 -39
-33 -109 0 -67 3 -78 33 -122 35 -54 124 -114 167 -114 14 0 37 -8 50 -17 16
-11 45 -18 80 -19 30 -1 84 -7 120 -14 143 -28 242 -11 265 44 7 17 24 41 38
54 16 15 23 30 20 45 -3 13 2 29 10 35 12 10 12 20 1 70 -11 47 -21 64 -57 97
-41 37 -65 49 -159 78 -38 11 -50 24 -25 24 17 0 107 61 107 73 0 5 24 21 53
37 43 23 54 35 65 70 15 46 5 101 -25 143 -77 105 -185 153 -288 129z" />
    </g>
</svg>